<?xml version="1.0" encoding="utf-8"?>
<!-- Generator: Adobe Illustrator 19.2.0, SVG Export Plug-In . SVG Version: 6.00 Build 0)  -->
<svg version="1.1" xmlns="http://www.w3.org/2000/svg" xmlns:xlink="http://www.w3.org/1999/xlink" x="0px" y="0px"
	 viewBox="0 0 12.8 30" style="enable-background:new 0 0 12.8 30;" xml:space="preserve">
<style type="text/css">
	.st0{fill:none;stroke:#FFFFFF;stroke-width:0.5945;stroke-miterlimit:10;}
	.st1{fill:#FFFFFF;}
	.st2{fill:none;stroke:#FFFFFF;stroke-width:0.6658;stroke-linecap:round;stroke-linejoin:round;stroke-miterlimit:10;}
</style>
<g id="Layer_2">
</g>
<g id="Layer_1">
</g>
<g id="Layer_3">
	<path class="st0" d="M6.4,6.5L6.4,6.5c-2.3,0-4.2,1.9-4.2,4.2v8.5c0,2.3,1.9,4.2,4.2,4.2h0c2.3,0,4.2-1.9,4.2-4.2v-8.5
		C10.7,8.4,8.8,6.5,6.4,6.5z"/>
	<circle class="st1" cx="6.5" cy="9.9" r="0.6"/>
	<polyline class="st2" points="4.4,3.1 6.5,1 8.6,3.1 	"/>
	<polyline class="st2" points="4.3,5.3 6.4,3.2 8.5,5.3 	"/>
	<polyline class="st2" points="8.5,26.9 6.4,29 4.3,26.9 	"/>
	<polyline class="st2" points="8.6,24.7 6.5,26.8 4.4,24.7 	"/>
</g>
</svg>
